<svg id="epi8PngJd7o1" xmlns="http://www.w3.org/2000/svg" xmlns:xlink="http://www.w3.org/1999/xlink" viewBox="0 0 100 100" shape-rendering="geometricPrecision" text-rendering="geometricPrecision" project-id="55b600ff6ab14c7eafa97a8318ec34d6" export-id="f8b51eaf3710400c98dcc267d1ba5e35" cached="false"><defs><linearGradient id="epi8PngJd7o2-fill" x1="0.626132" y1="0.677735" x2="0.049574" y2="0.297566" spreadMethod="pad" gradientUnits="objectBoundingBox" gradientTransform="translate(0 0)"><stop id="epi8PngJd7o2-fill-0" offset="0%" stop-color="#be9753"/><stop id="epi8PngJd7o2-fill-1" offset="100%" stop-color="#f1e1a1"/></linearGradient></defs><path d="M21.5,45.1729c0-2.76142,2.23858-5,5-5s5,2.23858,5,5c0,2.23882-1.47145,4.13397-3.5,4.7711v5.3582h17.5c4.41828,0,8,3.58172,8,8v21c0,4.41828-3.58172,8-8,8h-26.15809L9,102.64411L9,92.3022h-1c-4.41828,0-8-3.58172-8-8v-21c0-4.41828,3.58172-8,8-8h17v-5.3582c-2.02855-.63713-3.5-2.53228-3.5-4.7711ZM40,72.80219c1.65685,0,3-1.34315,3-3v-5c0-1.65685-1.34315-3-3-3s-3,1.34315-3,3v5c0,1.65685,1.34315,3,3,3Zm-27,0c1.65685,0,3-1.34315,3-3v-5c0-1.65685-1.34315-3-3-3s-3,1.34315-3,3v5c0,1.65685,1.34315,3,3,3ZM26.74589,86.23847c4.65287,0,8.68725-2.64812,10.6782-6.51944.03741-.05824.06894-.12061.09376-.18628.01887-.03833.03755-.07677.05602-.11533l-.01831-.00826c.01736-.0738.02654-.15075.02654-.22985c0-.55228-.44772-1-1-1-.33699,0-.63505.16669-.81622.42211l-.01593-.00719c-1.61906,3.34069-5.04255,5.64424-9.00406,5.64424-3.88009,0-7.24405-2.20983-8.90196-5.43958-.01979-.04842-.04327-.09493-.07008-.1392-.01075-.02178-.02142-.0436-.03202-.06546l-.00849.00383c-.18124-.2548-.47893-.42101-.81543-.42101-.55228,0-1,.44772-1,1c0,.07862.00907.15513.02623.22853l-.02623.01184c1.93327,4.03472,6.05523,6.82104,10.82798,6.82104v.00001Z" transform="matrix(1.6 0 0 1.6 7.2 -64.253608)" fill="url(#epi8PngJd7o2-fill)" stroke-width="0"/></svg>
