<svg id="e5DskVSPBZd1" xmlns="http://www.w3.org/2000/svg" xmlns:xlink="http://www.w3.org/1999/xlink" viewBox="0 0 300 300" shape-rendering="geometricPrecision" text-rendering="geometricPrecision" project-id="050b274f129f48d8932e5388201cab19" export-id="00941b5b6b1d43f3b4178d73d228b874" cached="false"><g transform="matrix(1.18921 0 0 1.18921 -28.380907 -28.38082)"><path d="M77,99.37071c0-2.76142,2.23858-5,5-5s5,2.23858,5,5c0,2.23882-1.47145,4.13397-3.5,4.7711v5.3582h17.5c4.41828,0,8,3.58172,8,8v21c0,4.41828-3.58172,8-8,8h-26.15809L64.5,156.84192v-10.34191h-1c-4.41828,0-8-3.58172-8-8v-21c0-4.41828,3.58172-8,8-8h17v-5.3582c-2.02855-.63713-3.5-2.53228-3.5-4.7711Z" transform="matrix(3.91862 0 0 3.91862 -172.307 -342.204)" fill="none" stroke="#000" stroke-width="2"/><path d="M74.56379,38.69915c-4.77275,0-8.89471-2.78632-10.82798-6.82104l.02623-.01184c-.01716-.0734-.02623-.14991-.02623-.22853c0-.55228.44772-1,1-1c.3365,0,.63419.16621.81543.42101l.00849-.00383c.0106.02186.02127.04368.03202.06546.02681.04427.05029.09078.07008.1392c1.65791,3.22975,5.02187,5.43958,8.90196,5.43958c3.96151,0,7.385-2.30355,9.00406-5.64424l.01593.00719c.18117-.25542.47923-.42211.81622-.42211.55228,0,1,.44772,1,1c0,.0791-.00918.15605-.02654.22985l.01831.00826c-.01847.03856-.03715.077-.05602.11533-.02482.06567-.05635.12804-.09376.18628-1.99095,3.87132-6.02533,6.51944-10.6782,6.51944v-.00001Z" transform="matrix(3.85134 0 0 3.85134 -137.186 57.534)" stroke-width="0.5"/><g transform="matrix(4.06271 0 0 4.06271 -183.142 -354.905)"><rect width="6" height="11" rx="3" ry="3" transform="translate(65.5 116)" stroke="#000" stroke-width="0.5"/><rect width="6" height="11" rx="3" ry="3" transform="translate(92.5 116)" stroke="#000" stroke-width="0.5"/></g></g></svg>
