<svg id="es4xmMiCVpb1" xmlns="http://www.w3.org/2000/svg" xmlns:xlink="http://www.w3.org/1999/xlink" viewBox="0 0 300 300" shape-rendering="geometricPrecision" text-rendering="geometricPrecision" project-id="050b274f129f48d8932e5388201cab19" export-id="c916fe2f8a6e4171b42e9f5674bf742d" cached="false"><path d="M77,99.37071c0-2.76142,2.23858-5,5-5s5,2.23858,5,5c0,2.23882-1.47145,4.13397-3.5,4.7711v5.3582h17.5c4.41828,0,8,3.58172,8,8v21c0,4.41828-3.58172,8-8,8h-26.15809L64.5,156.84192v-10.34191h-1c-4.41828,0-8-3.58172-8-8v-21c0-4.41828,3.58172-8,8-8h17v-5.3582c-2.02855-.63713-3.5-2.53228-3.5-4.7711Z" transform="matrix(3.91862 0 0 3.91862 -172.307 -342.204)" fill="#fff" stroke="#000" stroke-width="2"/><path d="M149.98451,206.57758c-18.38148,0-34.25655-10.73107-41.70223-26.27014l.10102-.0456c-.06609-.28269-.10102-.57735-.10102-.88015c0-2.12702,1.72432-3.85134,3.85134-3.85134c1.29598,0,2.44248.64013,3.1405,1.62145l.0327-.01475c.04082.08419.08192.16823.12332.25211.10325.1705.19368.34962.2699.53611c6.38518,12.43887,19.34093,20.94967,34.28447,20.94967c15.25712,0,28.44215-8.87175,34.6777-21.73789l.06135.02769c.69775-.98371,1.84568-1.62569,3.14354-1.62569c2.12702,0,3.85134,1.72432,3.85134,3.85134c0,.30464-.03536.601-.10221.88523l.07052.03181c-.07113.14851-.14308.29655-.21575.44418-.09559.25292-.21702.49313-.3611.71743-7.66783,14.90977-23.20559,25.10858-41.12538,25.10858l-.00001-.00004Zm-67.019-57.70667v-20.31377c0-6.73137,5.45689-12.18826,12.18826-12.18826s12.18826,5.45689,12.18826,12.18826v20.31377c0,6.73137-5.45689,12.18826-12.18826,12.18826s-12.18826-5.45689-12.18826-12.18826Zm109.69435,0v-20.31377c0-6.73137,5.45689-12.18826,12.18826-12.18826s12.18826,5.45689,12.18826,12.18826v20.31377c0,6.73137-5.45689,12.18826-12.18826,12.18826s-12.18826-5.45689-12.18826-12.18826Z" stroke-width="0.5"/></svg>
