<svg id="eUv1ETBVJML1" xmlns="http://www.w3.org/2000/svg" xmlns:xlink="http://www.w3.org/1999/xlink" viewBox="0 0 300 300" shape-rendering="geometricPrecision" text-rendering="geometricPrecision" project-id="ae9996fceffe44adb659fcf437024ac6" export-id="3aa8424387ed4a1a99d92107beb79947" cached="true"><defs><linearGradient id="eUv1ETBVJML4-fill" x1="0.5" y1="0.653554" x2="0.859277" y2="0.121933" spreadMethod="pad" gradientUnits="objectBoundingBox" gradientTransform="translate(0 0)"><stop id="eUv1ETBVJML4-fill-0" offset="0%" stop-color="#203e60"/><stop id="eUv1ETBVJML4-fill-1" offset="100%" stop-color="#2c5b82"/></linearGradient></defs><rect width="227" height="148" rx="16" ry="16" transform="translate(36.902694 76.293684)" fill="#1a2235" stroke-width="0"/><path d="M201.32389,160.05301c-32.989-10.47413-74.01033-22.47268-78.85319-83.75933h125.43392c8.83567.00104,15.99808,7.16408,15.99808,16v116c0,1.05518-.10214,2.08651-.29708,3.08463-10.26047-39.60382-32.79943-41.96456-62.28172-51.3253h-.00001Z" fill="url(#eUv1ETBVJML4-fill)" stroke-width="0"/><path d="M36.764622,173.138368l147.607187-.413465l14.952263-15.481401.069027-24.92456l26.365972-26.365973l38.143622.150662" transform="translate(0.000001 0.000002)" fill="none" stroke="#c7a578" stroke-width="5"/><line x1="-14.393945" y1="0" x2="15" y2="0" transform="matrix(1.214505 0 0 -1 54.217575 193)" fill="none" stroke="#c7a578" stroke-width="5"/><line x1="-15" y1="0" x2="15" y2="0" transform="matrix(0.986219 0 0 1 94 193)" fill="none" stroke="#c7a578" stroke-width="5"/><path d="M263.60562,135.140262l-15.701.132488-13.081446,12.983816-.098233,45.760833" transform="translate(0.000001 0.000001)" fill="none" stroke="#c7a578" stroke-width="5"/><path d="M226,200.92353c0-4.97056,4.02944-9,9-9s9,4.02944,9,9-4.02944,9-9,9-9-4.02944-9-9Zm9,5c2.76142,0,5-2.23858,5-5s-2.23858-5-5-5-5,2.23858-5,5s2.23858,5,5,5Z" fill="#c7a578" stroke-width="0"/><ellipse rx="9" ry="9" transform="translate(207 186)" fill="#c7a578" stroke-width="0"/><line x1="-0.032948" y1="22.611534" x2="-0.032948" y2="-15.388466" transform="translate(207.032948 201.388466)" fill="none" stroke="#c7a578" stroke-width="5"/><path d="M60.227705,206.802937l101.914323-.103371l13.811706-12.682167h20.115053l21.548965-15.099816-.054555-38.740181l19.907887-19.681605l26.134532-.380416" transform="matrix(1 0 0 0.993011 0.000005 1.142418)" fill="none" stroke="#c7a578" stroke-width="5"/><path d="M21.5,45.1729c0-2.76142,2.23858-5,5-5s5,2.23858,5,5c0,2.23882-1.47145,4.13397-3.5,4.7711v5.3582h17.5c4.41828,0,8,3.58172,8,8v21c0,4.41828-3.58172,8-8,8h-26.15809L9,102.64411L9,92.3022h-1c-4.41828,0-8-3.58172-8-8v-21c0-4.41828,3.58172-8,8-8h17v-5.3582c-2.02855-.63713-3.5-2.53228-3.5-4.7711ZM40,72.80219c1.65685,0,3-1.34315,3-3v-5c0-1.65685-1.34315-3-3-3s-3,1.34315-3,3v5c0,1.65685,1.34315,3,3,3Zm-27,0c1.65685,0,3-1.34315,3-3v-5c0-1.65685-1.34315-3-3-3s-3,1.34315-3,3v5c0,1.65685,1.34315,3,3,3ZM26.74589,86.23847c4.65287,0,8.68725-2.64812,10.6782-6.51944.03741-.05824.06894-.12061.09376-.18628.01887-.03833.03755-.07677.05602-.11533l-.01831-.00826c.01736-.0738.02654-.15075.02654-.22985c0-.55228-.44772-1-1-1-.33699,0-.63505.16669-.81622.42211l-.01593-.00719c-1.61906,3.34069-5.04255,5.64424-9.00406,5.64424-3.88009,0-7.24405-2.20983-8.90196-5.43958-.01979-.04842-.04327-.09493-.07008-.1392-.01075-.02178-.02142-.0436-.03202-.06546l-.00849.00383c-.18124-.2548-.47893-.42101-.81543-.42101-.55228,0-1,.44772-1,1c0,.07862.00907.15513.02623.22853l-.02623.01184c1.93327,4.03472,6.05523,6.82104,10.82798,6.82104v.00001Z" transform="translate(55.5 54.19781)" fill="#c7a578" stroke-width="0"/></svg>
