<svg id="evARQbfJ4Vo1" xmlns="http://www.w3.org/2000/svg" xmlns:xlink="http://www.w3.org/1999/xlink" viewBox="0 0 300 300" shape-rendering="geometricPrecision" text-rendering="geometricPrecision" project-id="050b274f129f48d8932e5388201cab19" export-id="4d525ecfdcf046dca3057bd04b004de3" cached="false"><path d="M129.42674,47.19205c0-10.82096,8.77214-19.5931,19.5931-19.5931s19.5931,8.77214,19.5931,19.5931c0,8.77308-5.76605,16.19946-13.71517,18.69613v20.99675h68.57585c17.31356,0,31.34896,14.0354,31.34896,31.34896v82.29102c0,17.31356-14.0354,31.34896-31.34896,31.34896h-102.50361L80.44399,272.39989v-40.52602h-3.91862c-17.31356,0-31.34896-14.0354-31.34896-31.34896v-82.29102c0-17.31356,14.0354-31.34896,31.34896-31.34896h66.61654v-20.99675c-7.94912-2.49667-13.71517-9.92304-13.71517-18.69613Zm20.55778,159.38557c17.91979,0,33.45755-10.19881,41.12538-25.10858.14408-.2243.26551-.46451.3611-.71743.07267-.14763.14462-.29567.21575-.44418l-.07052-.03181c.06685-.28423.10221-.58059.10221-.88523c0-2.12702-1.72432-3.85134-3.85134-3.85134-1.29786,0-2.44579.64198-3.14354,1.62569l-.06135-.02769c-6.23555,12.86614-19.42058,21.73789-34.6777,21.73789-14.94354,0-27.89929-8.5108-34.28447-20.94967-.07622-.18649-.16665-.36561-.2699-.53611-.0414-.08388-.0825-.16792-.12332-.25211l-.0327.01475c-.69802-.98132-1.84452-1.62145-3.1405-1.62145-2.12702,0-3.85134,1.72432-3.85134,3.85134c0,.3028.03493.59746.10102.88015l-.10102.0456c7.44568,15.53907,23.32075,26.27014,41.70223,26.27014l.00001.00004ZM95.15377,161.05917c6.73137,0,12.18826-5.45689,12.18826-12.18826v-20.31377c0-6.73137-5.45689-12.18826-12.18826-12.18826s-12.18826,5.45689-12.18826,12.18826v20.31377c0,6.73137,5.45689,12.18826,12.18826,12.18826Zm109.69435,0c6.73137,0,12.18826-5.45689,12.18826-12.18826v-20.31377c0-6.73137-5.45689-12.18826-12.18826-12.18826s-12.18826,5.45689-12.18826,12.18826v20.31377c0,6.73137,5.45689,12.18826,12.18826,12.18826Z" fill="#fff" stroke-width="2"/></svg>
